<svg width="128" height="128" viewBox="0 0 128 128" fill="none" xmlns="http://www.w3.org/2000/svg">
<path d="M109.757 49.765L104.617 33.945L94.43 2.596C93.907 0.981998 91.625 0.981998 91.1 2.596L80.913 33.946H47.087L36.9 2.596C36.376 0.981998 34.094 0.981998 33.57 2.596L23.383 33.946L18.243 49.766C18.0145 50.4693 18.0145 51.2268 18.243 51.9301C18.4715 52.6334 18.9168 53.2463 19.515 53.681L64 86L108.485 53.68C109.083 53.2453 109.528 52.6324 109.757 51.9291C109.985 51.2258 109.985 50.4683 109.757 49.765Z" fill="#FC6D26"/>
<path d="M64 86L80.913 33.946H47.087L64 86Z" fill="#E24329"/>
<path d="M64.0001 86L47.0871 33.946H23.3831L64.0001 86Z" fill="#FC6D26"/>
<path d="M23.383 33.946L18.243 49.766C18.0147 50.4691 18.0149 51.2265 18.2434 51.9296C18.4719 52.6326 18.917 53.2453 19.515 53.68L64 86L23.383 33.946Z" fill="#FCA326"/>
<path d="M23.3831 33.946H47.0871L36.9001 2.594C36.3761 0.980997 34.0941 0.980997 33.5701 2.594L23.3831 33.946Z" fill="#E24329"/>
<path d="M64 86L80.913 33.946H104.617L64 86Z" fill="#FC6D26"/>
<path d="M104.617 33.946L109.757 49.766C109.985 50.4691 109.985 51.2265 109.757 51.9296C109.528 52.6326 109.083 53.2453 108.485 53.68L64 86L104.617 33.946Z" fill="#FCA326"/>
<path d="M104.617 33.946H80.913L91.1 2.594C91.624 0.980997 93.906 0.980997 94.43 2.594L104.617 33.946Z" fill="#E24329"/>
<path d="M65.387 93.983H60.897L60.912 127.388H79.072V123.258H65.4L65.385 93.983H65.387ZM96.363 121.523C95.6438 122.271 94.78 122.864 93.8242 123.268C92.8683 123.671 91.8404 123.875 90.803 123.869C87.385 123.869 86.008 122.185 86.008 119.992C86.008 116.677 88.303 115.096 93.2 115.096C94.118 115.096 95.597 115.198 96.362 115.351V121.521L96.363 121.523ZM91.721 101.276C88.097 101.276 84.771 102.561 82.178 104.699L83.765 107.446C85.601 106.376 87.845 105.304 91.059 105.304C94.732 105.304 96.364 107.191 96.364 110.354V111.984C95.65 111.832 94.171 111.73 93.254 111.73C85.397 111.73 81.419 114.485 81.419 120.248C81.419 125.398 84.581 128 89.376 128C92.606 128 95.701 126.52 96.772 124.124L97.589 127.388H100.752V110.303C100.752 104.897 98.405 101.276 91.722 101.276H91.721ZM115.234 124.022C113.551 124.022 112.071 123.818 110.949 123.308V107.856C112.479 106.581 114.366 105.663 116.763 105.663C121.099 105.663 122.783 108.723 122.783 113.67C122.783 120.707 120.079 124.022 115.233 124.022M117.119 101.276C113.107 101.276 110.949 104.006 110.949 104.006V99.696L110.934 93.983H106.548L106.562 126.573C108.755 127.49 111.765 128 115.029 128C123.393 128 127.423 122.645 127.423 113.414C127.423 106.121 123.7 101.276 117.119 101.276ZM16.592 97.604C20.572 97.604 23.122 98.93 24.804 100.256L26.734 96.916C24.104 94.61 20.567 93.371 16.794 93.371C7.25598 93.371 0.573975 99.186 0.573975 110.916C0.573975 123.205 7.78397 128 16.03 128C20.162 128 23.682 127.03 25.977 126.062L25.883 112.93V108.8H13.64V112.93H21.445L21.539 122.9C20.519 123.41 18.733 123.818 16.335 123.818C9.70497 123.818 5.26497 119.648 5.26497 110.864C5.26697 101.939 9.85798 97.604 16.591 97.604M48.16 93.983H43.773L43.787 99.593V118.972C43.787 124.379 46.134 128 52.817 128C53.739 128 54.642 127.916 55.519 127.757V123.817C54.8439 123.92 54.1619 123.971 53.479 123.971C49.805 123.971 48.173 122.085 48.173 118.923V105.56H55.518V101.888H48.172L48.158 93.983H48.16ZM32.642 127.388H37.029V101.888H32.64V127.388H32.642ZM32.642 98.37H37.029V93.983H32.64V98.369L32.642 98.37Z" fill="#5C5C5C"/>
</svg>
